<?xml version="1.0" encoding="UTF-8" ?>
<!DOCTYPE svg PUBLIC "-//W3C//DTD SVG 1.1//EN" "http://www.w3.org/Graphics/SVG/1.1/DTD/svg11.dtd">
<svg width="880pt" height="978pt" viewBox="0 0 880 978" version="1.1" xmlns="http://www.w3.org/2000/svg">
<g id="#ec5abcff">
</g>
<g id="#ed7434ff">
<path fill="#ed7434" opacity="1.00" d=" M 301.34 243.94 C 347.67 198.05 393.82 151.97 440.30 106.24 C 479.57 145.80 518.75 185.45 558.00 225.03 C 570.65 238.03 584.00 250.44 595.09 264.86 C 619.01 296.76 633.64 335.92 634.53 375.93 C 636.98 429.90 615.46 484.41 576.83 522.18 C 565.33 510.63 553.79 499.12 542.53 487.34 C 549.03 480.51 555.27 473.42 560.73 465.70 C 573.25 446.63 581.99 424.87 584.68 402.13 C 589.70 365.15 579.79 326.42 557.64 296.40 C 552.24 288.58 545.45 281.86 538.85 275.08 C 505.85 241.84 472.84 208.60 440.00 175.20 C 405.33 209.79 370.43 244.15 335.67 278.65 C 324.00 267.31 312.64 255.65 301.34 243.94 Z" />
<path fill="#ed7434" opacity="1.00" d=" M 409.12 274.14 C 419.76 264.56 429.36 253.90 439.81 244.13 C 444.19 248.10 447.83 252.78 452.11 256.84 C 465.73 270.25 478.91 284.09 492.51 297.51 C 503.10 308.33 514.76 318.43 522.58 331.57 C 540.72 360.32 542.10 398.82 525.91 428.72 C 521.41 437.58 515.42 445.72 508.35 452.69 C 506.35 451.01 504.38 449.30 502.59 447.41 C 493.16 437.54 483.05 428.32 473.99 418.11 C 480.53 411.92 484.72 403.58 487.08 394.98 C 491.21 378.87 486.37 360.99 474.94 348.98 C 463.12 336.93 450.92 325.25 439.32 312.98 C 427.69 324.57 415.88 335.96 404.34 347.64 C 399.79 344.23 396.25 339.74 392.16 335.85 C 384.66 328.31 376.95 320.97 369.86 313.04 C 382.95 300.08 396.18 287.26 409.12 274.14 Z" />
</g>
<g id="#f0945aff">
<path fill="#f0945a" opacity="1.00" d=" M 243.46 390.06 C 241.08 336.11 262.65 281.62 301.34 243.94 C 312.64 255.65 324.00 267.31 335.67 278.65 C 326.67 288.16 317.91 298.12 311.70 309.74 C 292.59 342.44 287.19 382.71 296.55 419.37 C 303.70 447.30 319.06 473.15 340.73 492.23 C 367.72 517.05 404.52 530.43 441.10 529.90 C 478.73 529.65 515.99 514.02 542.53 487.34 C 553.79 499.12 565.33 510.63 576.83 522.18 C 568.82 530.50 559.47 537.35 550.23 544.23 C 503.83 576.79 442.67 587.25 388.07 572.09 C 349.01 562.07 313.86 538.74 288.07 507.90 C 260.95 474.88 244.41 432.91 243.46 390.06 Z" />
<path fill="#f0945a" opacity="1.00" d=" M 359.84 324.98 C 362.88 320.76 366.47 316.97 369.86 313.04 C 376.95 320.97 384.66 328.31 392.16 335.85 C 396.25 339.74 399.79 344.23 404.34 347.64 C 394.34 357.58 388.57 371.79 389.59 385.93 C 390.21 398.15 395.54 410.08 404.44 418.52 C 410.75 424.97 419.09 429.19 427.79 431.36 C 444.09 435.26 462.28 430.15 473.99 418.11 C 483.05 428.32 493.16 437.54 502.59 447.41 C 504.38 449.30 506.35 451.01 508.35 452.69 C 496.55 464.41 481.79 473.24 465.71 477.62 C 442.48 484.24 416.70 481.95 395.17 470.93 C 381.60 464.31 369.65 454.41 360.62 442.31 C 348.90 427.06 342.20 408.16 340.97 389.00 C 339.60 366.33 346.23 343.21 359.84 324.98 Z" />
</g>
<g id="#40454eff">
<path fill="#40454e" opacity="1.00" d=" M 411.51 622.51 C 420.17 622.50 428.83 622.50 437.49 622.51 C 437.50 666.00 437.50 709.50 437.49 753.00 C 428.83 753.00 420.17 753.00 411.50 753.00 C 411.50 709.50 411.50 666.00 411.51 622.51 Z" />
<path fill="#40454e" opacity="1.00" d=" M 136.78 668.89 C 144.57 659.15 158.29 657.24 169.94 658.90 C 178.70 659.83 187.20 665.10 190.62 673.42 C 195.13 684.35 193.36 696.48 193.76 707.99 C 181.26 708.02 168.75 707.98 156.25 708.01 C 156.66 715.92 155.29 724.05 157.23 731.80 C 158.58 736.80 166.46 737.06 168.38 732.41 C 170.21 727.50 169.28 722.13 169.49 717.02 C 177.58 716.98 185.67 716.99 193.76 717.01 C 193.70 725.99 194.22 735.93 188.67 743.58 C 183.51 750.77 174.50 753.96 165.93 754.34 C 157.05 754.85 147.44 753.39 140.39 747.56 C 134.22 742.57 131.02 734.67 130.60 726.88 C 129.87 716.59 130.42 706.26 130.23 695.95 C 130.19 686.64 130.53 676.39 136.78 668.89 M 157.76 679.78 C 155.37 684.72 156.51 690.44 156.26 695.75 C 160.67 695.75 165.08 695.76 169.49 695.75 C 169.31 690.89 170.09 685.89 168.71 681.16 C 167.33 676.59 160.09 675.36 157.76 679.78 Z" />
<path fill="#40454e" opacity="1.00" d=" M 233.74 667.28 C 240.74 660.41 251.13 656.57 260.84 658.94 C 266.01 660.17 269.60 664.49 271.65 669.17 C 276.04 664.75 281.14 660.75 287.33 659.26 C 293.51 657.75 301.01 657.34 306.05 661.93 C 311.33 666.29 313.28 673.37 313.26 679.99 C 313.24 704.33 313.26 728.66 313.25 752.99 C 304.66 753.00 296.08 753.02 287.49 752.98 C 287.51 730.01 287.47 707.04 287.52 684.06 C 287.53 681.38 287.31 677.95 284.55 676.64 C 280.68 675.27 276.88 677.45 273.57 679.24 C 273.42 703.82 273.55 728.41 273.50 753.00 C 265.00 752.99 256.50 753.00 248.00 753.00 C 247.98 729.98 248.03 706.96 247.98 683.95 C 247.99 681.17 247.55 677.68 244.58 676.53 C 240.73 675.31 237.13 677.55 233.85 679.25 C 233.63 703.82 233.81 728.41 233.76 752.99 C 225.17 753.01 216.59 753.00 208.00 753.00 C 208.00 722.00 208.00 691.00 208.00 660.00 C 216.59 660.00 225.17 659.98 233.76 660.01 C 233.76 662.43 233.75 664.84 233.74 667.28 Z" />
<path fill="#40454e" opacity="1.00" d=" M 355.27 666.70 C 361.90 660.77 371.10 657.06 380.04 658.82 C 385.26 659.74 389.60 663.55 391.81 668.28 C 395.32 675.28 395.44 683.30 395.51 690.96 C 395.46 701.97 395.56 712.98 395.46 723.99 C 395.28 732.27 394.50 741.25 389.11 747.96 C 385.22 753.12 378.28 755.26 372.04 754.19 C 365.67 753.32 360.12 749.77 355.23 745.79 C 355.28 758.33 355.24 770.86 355.26 783.40 C 354.69 783.44 353.56 783.54 353.00 783.58 C 353.00 796.73 352.99 809.89 353.00 823.04 C 358.61 817.59 365.92 813.70 373.83 813.33 C 378.64 812.79 383.84 814.09 387.18 817.76 C 392.02 822.86 393.12 830.24 393.08 837.00 C 392.93 860.59 393.04 884.17 392.99 907.76 C 384.33 907.75 375.67 907.75 367.01 907.76 C 366.97 885.17 366.97 862.57 366.98 839.99 C 366.78 837.24 367.02 833.30 363.90 832.11 C 359.99 830.79 356.27 833.19 352.99 835.01 C 352.98 859.26 353.08 883.51 352.99 907.76 C 344.32 907.71 335.65 907.84 326.99 907.75 C 326.99 864.36 327.01 820.98 327.00 777.60 C 327.50 777.55 328.50 777.45 329.01 777.40 C 328.99 738.27 329.00 699.14 329.00 660.00 C 337.75 660.00 346.49 659.99 355.24 660.01 C 355.25 662.23 355.26 664.46 355.27 666.70 M 355.23 677.29 C 355.23 696.53 355.34 715.78 355.18 735.02 C 358.37 736.93 362.91 738.95 366.22 736.21 C 369.11 733.30 369.04 728.81 369.24 725.00 C 369.24 711.67 369.27 698.35 369.23 685.03 C 369.00 681.43 368.89 676.71 365.29 674.74 C 361.75 673.11 358.08 675.25 355.23 677.29 Z" />
<path fill="#40454e" opacity="1.00" d=" M 480.50 658.56 C 490.38 657.77 501.28 659.28 508.91 666.15 C 515.00 671.44 517.40 679.71 517.62 687.55 C 517.94 697.69 517.65 707.85 517.77 718.00 C 517.77 725.92 517.66 734.40 513.31 741.35 C 508.44 749.40 499.02 753.52 489.92 754.20 C 479.98 755.07 468.98 753.66 461.27 746.78 C 455.08 741.36 452.65 732.91 452.58 724.92 C 452.40 713.62 452.55 702.31 452.50 691.01 C 452.49 683.70 453.38 675.95 457.80 669.87 C 462.93 662.61 471.89 659.19 480.50 658.56 M 482.26 676.31 C 478.86 678.16 478.77 682.61 478.52 686.00 C 478.45 698.67 478.55 711.33 478.48 724.00 C 478.51 727.59 478.45 731.42 480.23 734.67 C 481.83 737.44 485.83 737.63 488.45 736.36 C 491.34 734.21 491.48 730.20 491.70 726.91 C 491.82 714.29 491.70 701.67 491.76 689.06 C 491.71 685.35 491.78 681.41 490.00 678.06 C 488.52 675.39 484.76 675.20 482.26 676.31 Z" />
<path fill="#40454e" opacity="1.00" d=" M 609.26 668.27 C 615.49 660.88 625.56 658.26 634.90 658.37 C 643.06 658.40 651.89 660.22 657.79 666.28 C 663.60 672.26 665.49 680.90 665.50 689.00 C 665.52 695.33 665.49 701.66 665.49 708.00 C 653.08 708.01 640.66 707.98 628.25 708.01 C 628.28 714.00 628.20 720.00 628.27 726.00 C 628.37 729.10 628.67 732.75 631.37 734.78 C 634.53 736.95 639.72 735.39 640.67 731.51 C 641.99 726.81 641.38 721.85 641.47 717.04 C 649.47 716.95 657.48 717.01 665.49 717.00 C 665.53 725.79 666.22 735.41 661.00 743.03 C 655.35 751.47 644.65 754.52 634.96 754.46 C 625.89 754.54 616.16 752.12 609.85 745.20 C 604.35 739.55 602.52 731.44 602.33 723.79 C 602.12 713.53 602.31 703.26 602.24 692.99 C 602.23 684.38 603.16 674.91 609.26 668.27 M 629.33 680.29 C 627.58 685.25 628.43 690.60 628.26 695.75 C 632.67 695.75 637.08 695.76 641.49 695.74 C 641.37 690.90 641.97 685.93 640.69 681.20 C 639.30 676.28 631.38 675.45 629.33 680.29 Z" />
<path fill="#40454e" opacity="1.00" d=" M 688.70 664.65 C 697.56 658.06 709.47 657.35 719.99 659.33 C 728.22 660.80 735.71 666.44 738.61 674.41 C 742.61 685.13 740.85 696.81 741.25 707.99 C 728.75 708.01 716.25 707.98 703.76 708.01 C 703.79 713.67 703.66 719.33 703.80 725.00 C 704.01 728.04 704.03 731.43 706.03 733.94 C 709.01 737.29 715.41 735.82 716.40 731.33 C 717.49 726.64 716.83 721.77 717.00 717.00 C 725.08 717.00 733.16 716.99 741.24 717.01 C 741.32 726.35 741.77 736.81 735.53 744.52 C 729.07 752.63 717.97 754.85 708.12 754.39 C 699.45 754.11 690.33 751.21 684.68 744.31 C 679.10 737.97 677.83 729.14 677.99 721.00 C 678.08 709.66 677.85 698.32 678.10 686.99 C 678.31 678.51 681.77 669.82 688.70 664.65 M 705.11 680.03 C 703.24 685.02 703.92 690.53 703.76 695.76 C 708.16 695.75 712.57 695.75 716.99 695.76 C 716.81 691.01 717.54 686.16 716.41 681.51 C 715.25 676.52 707.38 675.25 705.11 680.03 Z" />
<path fill="#40454e" opacity="1.00" d=" M 524.48 660.01 C 532.68 659.99 540.88 660.00 549.09 660.01 C 553.01 677.84 556.86 695.69 560.79 713.53 C 563.77 695.69 566.72 677.85 569.60 660.00 C 577.87 660.00 586.14 660.00 594.40 660.00 C 587.34 691.42 580.31 722.84 573.23 754.26 C 571.53 761.74 568.56 769.56 562.07 774.18 C 554.18 779.81 544.06 780.03 534.75 780.01 C 534.74 773.96 534.74 767.90 534.76 761.85 C 539.49 761.36 545.59 762.00 548.78 757.70 C 550.71 753.59 548.96 749.04 548.11 744.90 C 540.35 716.57 532.29 688.33 524.48 660.01 Z" />
<path fill="#40454e" opacity="1.00" d=" M 139.51 777.51 C 148.27 777.54 157.03 777.42 165.79 777.46 C 165.71 820.89 165.78 864.32 165.75 907.75 C 157.01 907.76 148.26 907.74 139.52 907.76 C 139.51 905.37 139.49 902.98 139.47 900.61 C 135.07 904.52 130.03 908.25 124.03 909.07 C 117.34 910.03 109.75 908.02 105.54 902.45 C 100.77 896.44 99.76 888.41 99.73 880.98 C 99.82 867.02 99.62 853.06 99.76 839.11 C 100.22 830.42 102.99 820.66 110.84 815.83 C 120.12 810.66 131.91 813.69 139.52 820.50 C 139.35 806.17 139.53 791.84 139.51 777.51 M 129.38 830.45 C 126.31 832.97 126.09 837.31 126.00 840.98 C 126.00 854.33 125.99 867.69 126.01 881.04 C 126.12 884.76 126.26 889.19 129.46 891.71 C 132.77 893.60 136.48 891.87 139.52 890.29 C 139.40 870.60 139.66 850.90 139.39 831.21 C 136.21 830.17 132.56 828.45 129.38 830.45 Z" />
<path fill="#40454e" opacity="1.00" d=" M 744.51 777.48 C 753.25 777.45 762.00 777.53 770.74 777.50 C 770.76 820.92 770.75 864.33 770.75 907.75 C 762.00 907.76 753.26 907.75 744.52 907.76 C 744.50 905.37 744.48 902.99 744.47 900.62 C 740.07 904.56 735.00 908.28 728.98 909.09 C 722.05 910.08 714.25 907.81 710.14 901.85 C 704.68 894.48 704.64 884.81 704.74 876.04 C 704.81 863.71 704.63 851.37 704.83 839.05 C 705.25 830.20 708.18 820.11 716.44 815.53 C 725.66 810.76 737.03 813.91 744.53 820.48 C 744.52 806.15 744.42 791.81 744.51 777.48 M 734.35 830.48 C 731.34 833.01 731.14 837.32 731.01 840.96 C 731.00 854.32 730.98 867.67 731.02 881.03 C 731.15 884.88 731.27 889.77 735.06 891.98 C 738.27 893.46 741.64 891.73 744.52 890.29 C 744.50 870.69 744.46 851.10 744.54 831.50 C 741.43 829.98 737.58 828.43 734.35 830.48 Z" />
<path fill="#40454e" opacity="1.00" d=" M 408.75 777.51 C 417.50 777.49 426.25 777.50 435.00 777.51 C 435.07 792.17 435.02 806.84 435.03 821.50 C 442.17 815.28 452.31 811.33 461.70 814.21 C 468.17 816.08 472.04 822.36 473.64 828.54 C 476.37 839.46 474.85 850.85 475.25 861.99 C 474.83 873.52 476.64 885.56 472.49 896.61 C 470.08 903.18 464.20 908.88 456.93 909.19 C 448.72 910.07 441.13 905.84 435.03 900.77 C 435.01 903.09 434.99 905.42 434.98 907.76 C 426.24 907.75 417.50 907.76 408.76 907.75 C 408.75 864.34 408.70 820.92 408.75 777.51 M 434.99 831.97 C 435.01 851.32 435.01 870.68 434.99 890.04 C 438.32 891.77 442.86 893.91 446.19 891.05 C 448.95 888.14 448.85 883.76 449.01 880.02 C 448.97 866.33 449.05 852.65 448.97 838.97 C 448.85 835.60 448.47 831.33 445.14 829.55 C 441.58 828.04 437.91 830.02 434.99 831.97 Z" />
<path fill="#40454e" opacity="1.00" d=" M 189.82 821.82 C 196.01 815.33 205.37 813.34 214.03 813.27 C 221.68 813.03 229.90 814.97 235.43 820.59 C 240.75 825.91 242.92 833.59 242.96 840.96 C 243.05 854.64 242.98 868.33 243.00 882.01 C 242.88 890.60 243.31 899.22 244.56 907.73 C 236.75 907.80 228.94 907.70 221.13 907.79 C 220.50 903.43 219.96 899.06 219.08 894.74 C 216.69 900.57 212.97 906.85 206.48 908.64 C 199.77 910.37 192.01 908.96 187.00 903.96 C 176.82 894.50 177.60 876.78 186.84 866.93 C 194.94 857.86 206.98 854.26 218.00 850.13 C 217.88 845.45 218.45 840.64 217.18 836.08 C 216.18 831.68 209.08 831.55 207.57 835.60 C 206.36 839.20 206.43 843.06 205.98 846.80 C 197.83 846.44 189.67 846.20 181.51 845.80 C 182.07 837.31 183.77 828.22 189.82 821.82 M 207.63 869.61 C 203.69 873.95 202.36 880.39 203.92 886.00 C 204.68 888.84 206.98 891.53 210.13 891.60 C 213.50 891.94 216.00 889.26 218.04 886.97 C 217.94 878.48 218.04 869.99 217.98 861.50 C 214.25 863.80 210.52 866.26 207.63 869.61 Z" />
<path fill="#40454e" opacity="1.00" d=" M 261.34 823.39 C 272.21 810.50 294.53 809.58 306.12 821.96 C 310.14 826.18 312.65 831.59 314.26 837.14 C 308.67 839.74 303.03 842.24 297.45 844.87 C 295.74 840.78 293.80 836.57 290.40 833.61 C 287.71 831.27 283.00 830.51 280.48 833.48 C 278.42 836.16 279.83 839.90 281.83 842.19 C 286.08 847.28 291.67 851.00 296.49 855.51 C 302.99 861.31 310.29 866.91 313.98 875.04 C 317.24 883.25 315.94 893.37 309.97 900.04 C 304.73 906.04 296.68 908.84 288.89 909.22 C 280.18 909.70 270.89 907.66 264.22 901.78 C 259.33 897.60 256.14 891.86 253.65 886.03 C 259.61 883.46 265.51 880.78 271.47 878.20 C 274.00 883.34 276.78 889.55 282.75 891.32 C 285.53 891.99 289.47 891.83 290.89 888.89 C 291.95 885.42 290.20 881.72 287.72 879.32 C 279.36 870.99 269.08 864.66 261.60 855.45 C 254.01 846.64 253.56 832.22 261.34 823.39 Z" />
<path fill="#40454e" opacity="1.00" d=" M 514.46 813.60 C 524.53 812.55 535.68 813.64 543.77 820.31 C 549.99 825.25 552.92 833.26 553.24 841.03 C 553.81 851.35 553.34 861.70 553.51 872.03 C 553.47 880.15 553.57 888.87 549.15 896.02 C 544.39 904.10 535.03 908.31 525.96 909.05 C 516.19 909.93 505.49 908.69 497.67 902.27 C 491.27 897.11 488.54 888.70 488.33 880.71 C 488.12 869.49 488.32 858.27 488.23 847.05 C 488.10 839.09 488.93 830.48 494.07 824.03 C 498.92 817.72 506.73 814.50 514.46 813.60 M 517.35 831.52 C 514.83 833.50 514.53 837.05 514.28 840.03 C 514.20 853.35 514.30 866.67 514.23 879.99 C 514.26 883.53 514.32 887.44 516.53 890.41 C 518.87 892.60 522.95 892.57 525.27 890.35 C 527.31 887.34 527.34 883.53 527.49 880.04 C 527.52 869.04 527.47 858.03 527.51 847.02 C 527.42 842.60 527.79 837.98 526.15 833.79 C 524.91 830.34 520.16 829.67 517.35 831.52 Z" />
<path fill="#40454e" opacity="1.00" d=" M 576.73 820.83 C 583.95 814.23 594.31 812.89 603.71 813.35 C 612.05 813.71 620.62 817.64 624.80 825.16 C 630.20 833.81 628.48 844.34 628.75 854.00 C 628.98 871.91 627.97 889.96 630.46 907.76 C 622.61 907.81 614.75 907.75 606.90 907.78 C 606.32 903.36 605.78 898.94 604.91 894.58 C 602.70 900.44 598.99 906.59 592.65 908.53 C 585.93 910.44 578.04 909.06 572.97 904.05 C 562.65 894.57 563.40 876.66 572.83 866.81 C 580.83 857.87 592.73 854.26 603.65 850.29 C 603.63 845.53 604.29 840.62 603.03 835.98 C 602.03 831.70 595.02 831.57 593.52 835.53 C 592.14 839.11 592.34 843.05 591.85 846.81 C 583.71 846.46 575.58 846.18 567.45 845.80 C 567.84 836.85 569.91 827.17 576.73 820.83 M 589.42 878.11 C 588.87 882.29 588.98 887.54 592.63 890.36 C 596.98 893.81 604.71 889.54 603.78 884.01 C 603.71 876.54 603.77 869.07 603.73 861.61 C 597.45 865.35 590.63 870.37 589.42 878.11 Z" />
<path fill="#40454e" opacity="1.00" d=" M 682.95 815.81 C 686.53 813.47 690.97 813.55 695.06 813.95 C 694.96 822.68 695.13 831.42 695.00 840.16 C 691.38 839.04 687.57 837.72 683.76 838.65 C 678.53 839.55 674.35 843.18 671.12 847.18 C 670.87 867.37 671.07 887.56 670.99 907.76 C 662.24 907.75 653.50 907.76 644.76 907.75 C 644.65 876.76 644.78 845.76 644.76 814.76 C 653.50 814.74 662.25 814.75 670.99 814.76 C 671.01 819.92 670.98 825.09 671.02 830.26 C 674.16 824.86 677.63 819.31 682.95 815.81 Z" />
</g>
</svg>
