<svg width="1004" height="615" viewBox="0 0 1004 615" fill="none" xmlns="http://www.w3.org/2000/svg">
<path d="M426.113 373.99H404.501V411.196H367.418V373.99H290.794V347.589L369.505 231.671H404.501V344.519H426.113V373.99ZM367.418 344.519V314.066C367.418 308.99 367.622 301.623 368.031 291.963C368.441 282.303 368.768 276.696 369.014 275.14H368.031C365.003 281.853 361.36 288.402 357.103 294.787L324.194 344.519H367.418Z" fill="#9BABA6"/>
<path d="M564.748 321.434C564.748 352.787 559.59 375.995 549.276 391.058C539.043 406.121 523.243 413.652 501.877 413.652C481.166 413.652 465.53 405.875 454.97 390.321C444.491 374.767 439.252 351.805 439.252 321.434C439.252 289.753 444.369 266.422 454.601 251.441C464.834 236.378 480.593 228.847 501.877 228.847C522.588 228.847 538.224 236.706 548.785 252.423C559.427 268.141 564.748 291.144 564.748 321.434ZM476.95 321.434C476.95 343.455 478.833 359.254 482.598 368.832C486.446 378.328 492.872 383.076 501.877 383.076C510.718 383.076 517.104 378.246 521.033 368.587C524.962 358.927 526.927 343.209 526.927 321.434C526.927 299.413 524.922 283.613 520.91 274.035C516.981 264.375 510.636 259.545 501.877 259.545C492.954 259.545 486.569 264.375 482.721 274.035C478.874 283.613 476.95 299.413 476.95 321.434Z" fill="#9BABA6"/>
<path d="M713.452 373.99H691.84V411.196H654.756V373.99H578.132V347.589L656.843 231.671H691.84V344.519H713.452V373.99ZM654.756 344.519V314.066C654.756 308.99 654.961 301.623 655.37 291.963C655.779 282.303 656.107 276.696 656.352 275.14H655.37C652.341 281.853 648.698 288.402 644.441 294.787L611.532 344.519H654.756Z" fill="#9BABA6"/>
<path d="M629.706 83.0901L983 83.0901C994.046 83.0901 1003 92.0444 1003 103.09V328.326C1003 339.371 994.046 348.326 983 348.326H772.753" stroke="#9BABA6"/>
<path d="M154.247 613.561L21 613.561C9.95429 613.561 0.999958 604.607 0.999959 593.561L0.999979 368.326C0.99998 357.28 9.95429 348.326 21 348.326L232.459 348.326" stroke="#9BABA6"/>
<path d="M570.809 72.6213L566.005 67.9593C567.355 65.0808 568.156 61.9773 568.369 58.8052L574.829 57.0515C575.571 56.8536 576.057 56.1724 576.027 55.4136C575.759 50.3924 574.344 45.5484 571.981 41.2105C571.616 40.5461 570.83 40.2041 570.101 40.4054L563.641 42.1591C561.793 39.5399 559.47 37.2849 556.784 35.5066L558.437 29.1039C558.626 28.3736 558.275 27.6016 557.588 27.2573C553.012 24.9353 548.028 23.704 543.151 23.5298C542.383 23.4985 541.703 24.0043 541.514 24.7346L539.858 31.1503C536.657 31.4227 533.532 32.2712 530.637 33.6519L525.847 28.9933C525.293 28.4609 524.456 28.3701 523.813 28.788C519.648 31.4266 516.065 34.9803 513.396 39.2568C512.989 39.9029 513.098 40.7377 513.651 41.2701L518.455 45.9321C517.106 48.8106 516.305 51.9142 516.092 55.0863L509.631 56.84C508.889 57.0378 508.403 57.719 508.433 58.4778C508.702 63.499 510.117 68.3431 512.48 72.6809C512.844 73.3453 513.63 73.6873 514.359 73.4861L520.82 71.7324C522.668 74.3516 524.991 76.6065 527.676 78.3849L526.02 84.8006C525.831 85.5308 526.182 86.3029 526.869 86.6471C531.445 88.9692 536.429 90.2005 541.306 90.3747C542.074 90.406 542.754 89.9001 542.943 89.1699L544.599 82.7542C547.801 82.4818 550.925 81.6332 553.82 80.2525L558.624 84.9146C559.177 85.447 560.014 85.5378 560.658 85.1199C564.822 82.4813 568.405 78.9275 571.075 74.6511C571.458 73.9851 571.363 73.1537 570.809 72.6213V72.6213ZM539.532 67.3696C533.701 65.8642 530.164 59.9573 531.648 54.2067C533.133 48.456 539.088 45.0001 544.919 46.5054C550.749 48.0108 554.287 53.9176 552.802 59.6683C551.317 65.419 545.362 68.8749 539.532 67.3696Z" stroke="#9BABA6" stroke-width="2"/>
<path d="M513.062 122.282L506.648 116.098C508.44 112.289 509.501 108.182 509.776 103.982L518.382 101.675C519.371 101.415 520.017 100.514 519.976 99.5091C519.605 92.8597 517.708 86.4421 514.548 80.6925C514.061 79.812 513.013 79.3572 512.042 79.622L503.436 81.9288C500.967 78.4562 497.866 75.4648 494.282 73.1037L496.47 64.6295C496.72 63.663 496.25 62.6399 495.334 62.1824C489.23 59.0968 482.584 57.4546 476.084 57.2123C475.061 57.1691 474.156 57.8373 473.906 58.8038L471.714 67.2952C467.448 67.6482 463.286 68.7645 459.432 70.5858L453.036 64.4058C452.297 63.6995 451.181 63.5772 450.324 64.1291C444.78 67.6131 440.014 72.3103 436.466 77.9665C435.926 78.8211 436.073 79.9268 436.812 80.6331L443.225 86.8176C441.434 90.626 440.373 94.7336 440.097 98.9334L431.492 101.24C430.503 101.5 429.857 102.401 429.898 103.406C430.269 110.056 432.165 116.473 435.325 122.223C435.813 123.103 436.861 123.558 437.832 123.293L446.438 120.986C448.907 124.459 452.008 127.45 455.592 129.812L453.399 138.303C453.15 139.269 453.619 140.293 454.535 140.75C460.639 143.836 467.285 145.478 473.785 145.72C474.808 145.763 475.714 145.095 475.963 144.129L478.156 135.637C482.421 135.284 486.583 134.168 490.438 132.347L496.851 138.531C497.59 139.238 498.705 139.36 499.562 138.808C505.106 135.324 509.873 130.627 513.42 124.971C513.93 124.09 513.801 122.988 513.062 122.282V122.282ZM471.365 115.254C463.591 113.247 458.863 105.417 460.828 97.8056C462.793 90.1944 470.721 85.6324 478.495 87.6396C486.269 89.6467 490.998 97.4766 489.033 105.088C487.068 112.699 479.139 117.261 471.365 115.254Z" stroke="#9BABA6" stroke-width="2"/>
<path d="M484.317 39.8666L491.685 46.2519L499.053 52.6372" stroke="#9BABA6" stroke-linecap="round"/>
<path d="M540.731 115.27L537.543 106.057L534.355 96.843" stroke="#9BABA6" stroke-linecap="round"/>
<path d="M501.998 37.9019L502.953 42.6974L503.909 47.4929" stroke="#9BABA6" stroke-linecap="round"/>
<path d="M524.437 108.132L526.007 103.501L527.577 98.8702" stroke="#9BABA6" stroke-linecap="round"/>
</svg>
