<svg width="14" height="12" viewBox="0 0 14 12" fill="none" xmlns="http://www.w3.org/2000/svg">
<path d="M3.5 9.49999L3 9.49999L3 8.99999L3 0.5L2.25 0.5L2.25 8.99999L2.25 9.49999L1.75 9.49999L0.6066 9.49999L2.62498 11.4776L4.64329 9.49999L3.5 9.49999ZM0.478498 9.37447L0.478535 9.37451L0.478498 9.37447ZM13.5 10.7857L6.625 10.7857L6.625 11.5L13.5 11.5L13.5 10.7857ZM11.75 7.35713L6.625 7.35713L6.625 8.07142L11.75 8.07142L11.75 7.35713ZM8.25 0.499999L6.625 0.499999L6.625 1.21428L8.25 1.21428L8.25 0.499999ZM10 3.92857L6.625 3.92857L6.625 4.64285L10 4.64285L10 3.92857Z" fill="#C5C7CD" stroke="#BDBDBD"/>
</svg>
